<?xml version="1.0" encoding="UTF-8" standalone="no"?>
<!-- Created with Inkscape (http://www.inkscape.org/) -->

<svg
   xmlns:dc="http://purl.org/dc/elements/1.1/"
   xmlns:cc="http://creativecommons.org/ns#"
   xmlns:rdf="http://www.w3.org/1999/02/22-rdf-syntax-ns#"
   xmlns:svg="http://www.w3.org/2000/svg"
   xmlns="http://www.w3.org/2000/svg"
   xmlns:sodipodi="http://sodipodi.sourceforge.net/DTD/sodipodi-0.dtd"
   xmlns:inkscape="http://www.inkscape.org/namespaces/inkscape"
   width="210mm"
   height="297mm"
   viewBox="0 0 210 297"
   version="1.1"
   id="svg8"
   inkscape:version="0.92.2 (5c3e80d, 2017-08-06)"
   sodipodi:docname="timeAddPowerup.svg">
  <defs
     id="defs2">
    <inkscape:path-effect
       effect="spiro"
       id="path-effect14"
       is_visible="true" />
  </defs>
  <sodipodi:namedview
     id="base"
     pagecolor="#ffffff"
     bordercolor="#666666"
     borderopacity="1.0"
     inkscape:pageopacity="0.0"
     inkscape:pageshadow="2"
     inkscape:zoom="1.979899"
     inkscape:cx="396.33363"
     inkscape:cy="585.39612"
     inkscape:document-units="mm"
     inkscape:current-layer="layer2"
     showgrid="true"
     inkscape:snap-nodes="true"
     inkscape:window-width="1920"
     inkscape:window-height="1051"
     inkscape:window-x="-9"
     inkscape:window-y="-9"
     inkscape:window-maximized="1">
    <inkscape:grid
       type="xygrid"
       id="grid10" />
  </sodipodi:namedview>
  <metadata
     id="metadata5">
    <rdf:RDF>
      <cc:Work
         rdf:about="">
        <dc:format>image/svg+xml</dc:format>
        <dc:type
           rdf:resource="http://purl.org/dc/dcmitype/StillImage" />
        <dc:title></dc:title>
      </cc:Work>
    </rdf:RDF>
  </metadata>
  <g
     inkscape:label="Layer 1"
     inkscape:groupmode="layer"
     id="layer1"
     sodipodi:insensitive="true">
    <path
       style="fill:none;stroke:#000000;stroke-width:0.26458332px;stroke-linecap:butt;stroke-linejoin:miter;stroke-opacity:1"
       d="m 111.125,95.916667 c 12.83032,0.50646 25.38634,6.148143 34.28495,15.404943 8.89861,9.2568 14.04065,22.02558 14.04065,34.86589 0,12.84031 -5.14204,25.60909 -14.04065,34.86589 -8.89861,9.25679 -21.45463,14.89848 -34.28495,15.40494 -13.491431,0.53256 -27.116487,-4.64437 -36.850265,-14.0015 -9.733778,-9.35713 -15.444094,-22.76739 -15.444094,-36.26933 0,-13.50194 5.710316,-26.9122 15.444094,-36.26933 9.733778,-9.35713 23.358834,-14.53406 36.850265,-14.001503 8.6993,0.343394 17.29712,2.993841 24.67986,7.608053 7.38274,4.61421 13.53275,11.18116 17.65347,18.85028"
       id="path12"
       inkscape:connector-curvature="0"
       inkscape:path-effect="#path-effect14"
       inkscape:original-d="m 111.125,95.916667 c -2.7e-4,2.64e-4 2.6e-4,67.027513 0,100.541663 -2.7e-4,33.51415 2.6e-4,-67.02804 0,-100.541663 -2.7e-4,-33.513625 28.22249,17.638623 42.33333,26.458333" />
    <path
       style="fill:#00ffff;stroke:#000000;stroke-width:11.33858299;stroke-miterlimit:4;stroke-dasharray:none;stroke-opacity:1"
       d="m 400.40406,741.34016 c -23.86048,-2.71752 -39.02106,-6.15298 -55.5095,-12.57872 -61.73047,-24.0571 -103.91554,-74.23713 -117.9726,-140.33091 -2.45669,-11.55092 -2.69955,-14.69816 -2.7322,-35.40628 -0.0282,-17.86069 0.35038,-24.67553 1.7675,-31.8198 10.74253,-54.15764 38.18225,-96.58643 81.03071,-125.29412 46.79904,-31.3545 103.47438,-40.35374 157.49001,-25.00719 47.1577,13.39813 88.45014,45.86572 112.24026,88.25275 30.46767,54.28447 32.88481,117.5364 6.64841,173.97686 -25.86004,55.63081 -78.25363,95.19818 -140.04618,105.76215 -11.15001,1.90618 -35.47863,3.29237 -42.91641,2.44526 z"
       id="path17"
       inkscape:connector-curvature="0"
       transform="scale(0.26458333)" />
  </g>
  <g
     inkscape:groupmode="layer"
     id="layer2"
     inkscape:label="On Clock">
    <path
       style="fill:none;stroke:#000000;stroke-width:1.465;stroke-linecap:butt;stroke-linejoin:miter;stroke-opacity:1;stroke-miterlimit:4;stroke-dasharray:none"
       d="m 109.80208,109.14583 2.64584,5.29167 -2.64584,-2.64583 -2.64583,2.64583 2.64583,-5.29167 v 34.39584 l 26.45834,42.33333 -5.29167,-2.64583 h 3.96875 l 0.47247,-3.11831 0.85045,5.76414"
       id="path4513"
       inkscape:connector-curvature="0"
       sodipodi:nodetypes="ccccccccccc" />
    <path
       style="fill:#000000;stroke:#000000;stroke-width:5.72684908;stroke-miterlimit:4;stroke-dasharray:none;stroke-opacity:1"
       d=""
       id="path4515"
       inkscape:connector-curvature="0"
       transform="scale(0.26458333)" />
    <path
       style="fill:#000000;stroke:#000000;stroke-width:2.02474689;stroke-miterlimit:4;stroke-dasharray:none;stroke-opacity:1"
       d="m 505.29791,697.02045 -7.76785,-3.9091 5.44827,-0.01 5.44828,-0.01 1.69458,2.71491 c 0.93202,1.49319 2.03575,3.26105 2.45274,3.92857 0.41699,0.66752 0.69824,1.20928 0.625,1.20393 -0.0732,-0.005 -3.6287,-1.76883 -7.90102,-3.91883 z"
       id="path4521"
       inkscape:connector-curvature="0"
       transform="scale(0.26458333)" />
    <path
       style="fill:#000000;stroke:#000000;stroke-width:2.02474689;stroke-miterlimit:4;stroke-dasharray:none;stroke-opacity:1"
       d=""
       id="path4525"
       inkscape:connector-curvature="0"
       transform="scale(0.26458333)" />
    <path
       style="fill:#000000;stroke:#000000;stroke-width:2.02474689;stroke-miterlimit:4;stroke-dasharray:none;stroke-opacity:1"
       d="m 407.45048,429.0723 c 0.005,-0.0973 1.56794,-3.27061 3.47243,-7.05186 l 3.46272,-6.875 0.01,3.57315 0.01,3.57315 -3.48215,3.4787 c -1.91518,1.91329 -3.47777,3.39913 -3.47243,3.30186 z"
       id="path4527"
       inkscape:connector-curvature="0"
       transform="scale(0.26458333)" />
    <path
       style="fill:#000000;stroke:#000000;stroke-width:2.02474689;stroke-miterlimit:4;stroke-dasharray:none;stroke-opacity:1"
       d="m 419.08426,425.71754 -3.4292,-3.43259 0.01,-3.56975 0.01,-3.56976 3.48265,6.93918 c 1.91546,3.81655 3.45423,6.96761 3.41949,7.00235 -0.0347,0.0347 -1.60631,-1.4815 -3.49237,-3.36943 z"
       id="path4529"
       inkscape:connector-curvature="0"
       transform="scale(0.26458333)" />
    <path
       style="fill:#000000;stroke:#000000;stroke-width:2.02474689;stroke-miterlimit:4;stroke-dasharray:none;stroke-opacity:1"
       d="m 511.93555,696.50207 c -1.09713,-1.75751 -1.99478,-3.24379 -1.99478,-3.30284 0,-0.059 0.119,-0.10736 0.26445,-0.10736 0.32097,0 0.3057,0.069 0.98521,-4.45561 0.30166,-2.00862 0.56718,-3.67075 0.59006,-3.69363 0.0494,-0.0494 2.22956,14.64713 2.18231,14.71102 -0.0179,0.0242 -0.93013,-1.39406 -2.02725,-3.15158 z"
       id="path4531"
       inkscape:connector-curvature="0"
       transform="scale(0.26458333)" />
  </g>
</svg>
